<?xml version="1.0" standalone="no"?>
<!DOCTYPE svg PUBLIC "-//W3C//DTD SVG 20010904//EN"
 "http://www.w3.org/TR/2001/REC-SVG-20010904/DTD/svg10.dtd">
<svg version="1.0" xmlns="http://www.w3.org/2000/svg"
 width="200" height="200" viewBox="0 0 600.000000 600.000000"
 preserveAspectRatio="xMidYMid meet">
<g transform="translate(0.000000,600.000000) scale(0.100000,-0.100000)"
fill="#FFFFFF" stroke="none">
<path d="M3188 5325 c-3 -3 -34 -10 -69 -16 -67 -11 -90 -19 -208 -78 -70 -34
-175 -124 -237 -203 -32 -41 -80 -128 -93 -173 -7 -22 -20 -56 -29 -75 -15
-32 -17 -104 -17 -759 l0 -723 65 -24 c35 -14 67 -28 70 -32 5 -7 27 -20 105
-63 22 -12 44 -27 50 -34 5 -6 28 -24 50 -40 108 -78 255 -231 330 -345 48
-73 52 -79 109 -195 47 -96 64 -141 106 -290 73 -252 62 -535 -30 -824 -26
-81 -117 -283 -143 -316 -4 -5 -33 -46 -64 -90 -55 -78 -105 -136 -171 -198
-18 -17 -29 -34 -25 -38 25 -22 147 -51 238 -56 264 -15 487 88 648 300 20 26
44 64 54 85 9 20 20 39 23 42 4 3 20 41 36 85 l29 80 3 1640 c3 1627 1 1792
-29 1811 -5 3 -9 13 -9 23 0 52 -136 262 -206 317 -20 16 -47 38 -60 49 -21
18 -51 34 -168 92 -68 33 -337 69 -358 48z"/>
<path d="M4104 5087 c15 -19 26 -39 26 -45 0 -6 6 -17 13 -24 17 -17 62 -143
84 -233 16 -62 18 -150 20 -797 l3 -728 273 0 c289 0 469 12 521 34 62 28 150
116 182 183 38 79 44 175 44 713 0 592 -4 641 -66 752 -21 39 -113 114 -168
138 -64 29 -233 39 -634 40 l-323 0 25 -33z"/>
<path d="M1828 3129 c-148 -13 -328 -75 -488 -167 -52 -30 -97 -58 -100 -61
-3 -3 -38 -35 -77 -70 -217 -189 -363 -458 -404 -740 -13 -93 -7 -361 10 -421
5 -19 18 -64 27 -100 10 -36 21 -66 26 -68 4 -2 8 -11 8 -19 0 -43 102 -224
184 -328 93 -117 267 -263 371 -312 22 -10 42 -20 45 -23 24 -24 231 -90 281
-90 15 0 29 -6 32 -12 5 -18 423 -18 458 -1 13 6 60 19 104 28 87 19 257 95
339 153 143 101 267 227 348 354 127 197 198 437 198 663 0 153 -39 349 -94
470 -13 28 -26 60 -30 73 -4 12 -12 22 -17 22 -5 0 -9 5 -9 10 0 16 -82 150
-92 150 -4 0 -8 5 -8 11 0 32 -206 229 -296 284 -105 64 -145 84 -187 99 -26
8 -55 20 -64 25 -46 25 -198 62 -298 71 -120 11 -138 11 -267 -1z"/>
</g>
</svg>
